<?xml version="1.0" standalone="no"?><!DOCTYPE svg PUBLIC "-//W3C//DTD SVG 1.1//EN" "http://www.w3.org/Graphics/SVG/1.1/DTD/svg11.dtd"><svg t="1624679095788" class="icon" viewBox="0 0 1024 1024" version="1.1" xmlns="http://www.w3.org/2000/svg" p-id="2798" xmlns:xlink="http://www.w3.org/1999/xlink" width="200" height="200"><defs><style type="text/css"></style></defs><path d="M512 109.847273a395.636364 395.636364 0 1 1-395.636364 395.636363 395.636364 395.636364 0 0 1 395.636364-395.636363m0-69.818182a465.454545 465.454545 0 1 0 465.454545 465.454545 465.454545 465.454545 0 0 0-465.454545-465.454545z" p-id="2799"></path><path d="M674.909091 480.349091H349.090909a34.909091 34.909091 0 0 1 0-69.818182h325.818182a34.909091 34.909091 0 0 1 0 69.818182zM674.909091 617.890909H349.090909a34.909091 34.909091 0 1 1 0-69.818182h325.818182a34.909091 34.909091 0 0 1 0 69.818182z" p-id="2800"></path><path d="M512 785.92a34.909091 34.909091 0 0 1-34.909091-34.909091v-279.272727a34.909091 34.909091 0 1 1 69.818182 0v279.272727a34.909091 34.909091 0 0 1-34.909091 34.909091zM488.727273 434.734545a34.676364 34.676364 0 0 1-23.272728-10.24l-93.090909-93.090909a34.909091 34.909091 0 0 1 49.338182-49.338181l93.090909 93.090909a35.141818 35.141818 0 0 1 0 49.338181 35.607273 35.607273 0 0 1-26.065454 10.24z" p-id="2801"></path><path d="M535.272727 434.734545a35.607273 35.607273 0 0 1-24.669091-10.24 35.141818 35.141818 0 0 1 0-49.338181l93.090909-93.090909a34.909091 34.909091 0 0 1 49.338182 49.338181l-93.090909 93.090909a34.676364 34.676364 0 0 1-24.669091 10.24z" p-id="2802"></path></svg>